<?xml version="1.0" standalone="no"?>
<!DOCTYPE svg PUBLIC "-//W3C//DTD SVG 20010904//EN"
 "http://www.w3.org/TR/2001/REC-SVG-20010904/DTD/svg10.dtd">
<svg version="1.0" xmlns="http://www.w3.org/2000/svg"
 width="500.000000pt" height="500.000000pt" viewBox="0 0 500.000000 500.000000"
 preserveAspectRatio="xMidYMid meet">

<g transform="translate(0.000000,500.000000) scale(0.100000,-0.100000)"
fill="#000000" stroke="none">
<path d="M1986 4983 c-3 -4 -6 -23 -6 -44 0 -32 -5 -41 -34 -59 -90 -55 -686
-346 -801 -391 -71 -27 -178 -73 -237 -101 l-108 -52 0 -119 c0 -92 -24 -304
-105 -940 l-104 -822 -54 -1025 c-30 -564 -53 -1027 -51 -1029 4 -4 596 -32
600 -28 2 2 30 367 63 813 55 731 63 824 92 964 18 85 35 161 39 168 7 14 42
-734 41 -893 0 -55 -12 -327 -26 -605 -14 -277 -25 -532 -25 -566 l0 -61 93
-36 c204 -80 420 -127 588 -127 132 0 182 16 247 78 125 119 187 294 258 722
19 118 36 220 38 225 2 6 8 -28 15 -75 21 -149 71 -412 96 -510 49 -188 155
-359 254 -410 90 -45 247 -45 451 0 197 45 420 123 420 149 0 9 -14 290 -30
626 l-31 610 20 428 c10 236 21 430 23 432 2 3 18 -66 36 -153 30 -143 38
-229 93 -966 33 -446 61 -811 63 -813 4 -4 596 24 600 28 2 2 -21 465 -51
1029 l-54 1025 -104 822 c-81 634 -105 848 -105 940 l0 119 -92 49 c-50 28
-98 51 -107 51 -58 5 -432 173 -756 340 -222 114 -225 116 -225 163 0 21 -3
40 -6 44 -4 3 -35 -29 -69 -71 -35 -42 -85 -98 -111 -124 -63 -60 -193 -152
-268 -190 l-60 -30 -45 22 c-141 68 -288 188 -396 322 -35 42 -65 74 -69 71z
m120 -204 c44 -45 117 -108 164 -142 47 -33 87 -62 88 -63 2 -1 -21 -47 -51
-101 l-54 -98 20 -41 20 -41 -79 -107 c-43 -58 -81 -103 -85 -99 -9 11 -108
538 -111 593 -3 60 1 180 6 180 2 0 39 -36 82 -81z m866 9 c1 -40 1 -89 0
-108 -3 -48 -103 -583 -111 -593 -4 -4 -42 41 -85 99 l-78 106 18 41 18 40
-52 101 c-42 81 -49 102 -38 108 53 30 182 137 241 200 39 42 73 76 78 77 4 0
8 -32 9 -71z m-1004 -25 l-4 -77 -219 -212 -219 -212 77 -38 c42 -21 77 -42
77 -46 0 -5 -43 -54 -95 -110 -52 -55 -95 -105 -95 -111 0 -6 221 -439 490
-963 270 -524 490 -956 490 -959 0 -3 -12 -5 -26 -5 -25 0 -25 0 -19 -68 9
-96 9 -221 0 -265 -5 -27 -3 -44 8 -60 25 -39 43 -342 27 -475 -29 -252 -96
-617 -136 -739 -52 -161 -132 -280 -219 -326 -58 -31 -248 -31 -390 1 -107 23
-279 77 -358 111 l-48 21 6 92 c3 51 17 322 30 602 l25 508 -31 696 -30 696
-140 774 c-76 425 -139 779 -139 786 0 7 51 32 113 55 103 40 740 351 790 386
12 8 25 15 30 15 5 0 7 -35 5 -77z m1236 -22 c221 -115 510 -250 659 -308 64
-25 117 -49 117 -53 0 -5 -60 -354 -134 -776 -74 -423 -142 -818 -151 -879 -8
-61 -27 -376 -42 -703 l-27 -593 27 -567 c15 -312 28 -583 27 -603 l0 -35 -99
-37 c-309 -114 -594 -148 -704 -84 -121 71 -204 236 -261 523 -34 169 -71 401
-86 539 -18 155 0 434 30 472 24 31 25 48 4 88 -13 25 -14 53 -8 167 7 137 7
138 -15 138 -11 0 -21 3 -21 7 0 4 134 267 298 585 l297 579 3 -70 3 -71 254
0 255 0 0 85 0 85 -28 0 c-21 0 -44 17 -97 70 -38 39 -77 70 -85 70 -9 0 -29
-14 -45 -30 -19 -20 -32 -27 -39 -20 -23 23 -61 10 -112 -41 -35 -34 -58 -50
-72 -47 -18 3 -1 41 164 358 101 195 184 360 184 365 0 6 -45 59 -100 118
l-101 106 81 41 81 41 -218 213 -217 212 -4 72 c-2 40 -1 72 3 72 5 0 85 -40
179 -89z m-1231 -204 c9 -108 46 -291 101 -492 38 -137 92 -411 351 -1759 7
-37 9 -64 4 -59 -4 4 -207 394 -449 867 l-442 858 43 47 c24 25 75 78 113 118
39 40 68 74 65 77 -2 2 -37 20 -78 41 l-74 37 174 174 c96 96 177 174 180 174
3 0 9 -37 12 -83z m1266 -120 l144 -145 -74 -37 c-41 -21 -76 -39 -78 -41 -2
-2 46 -57 108 -123 l112 -119 -442 -859 c-243 -472 -445 -862 -450 -868 -6 -6
-7 2 -4 20 255 1321 330 1695 364 1817 52 185 89 367 98 474 l6 83 36 -29 c20
-16 101 -94 180 -173z m-696 107 l45 27 46 -84 c25 -46 46 -88 46 -93 1 -5
-25 -60 -57 -121 l-58 -113 -72 0 -71 0 -56 109 c-31 60 -56 115 -56 122 0 6
21 50 46 96 l45 84 49 -27 48 -26 45 26z m1545 -184 l52 -30 0 -88 c0 -52 43
-417 105 -902 l105 -815 55 -1029 c30 -566 54 -1031 52 -1033 -5 -5 -507 -26
-512 -22 -2 3 -31 367 -64 810 l-61 807 -51 233 -51 234 16 145 c17 150 287
1720 296 1720 3 0 29 -14 58 -30z m-3118 9 c0 -6 61 -356 135 -777 74 -422
142 -834 151 -917 l17 -150 -52 -234 -51 -233 -61 -807 c-33 -443 -62 -807
-64 -810 -5 -4 -507 17 -512 22 -2 3 21 467 52 1033 l55 1029 105 815 c62 484
105 850 105 902 l0 88 48 24 c52 28 72 32 72 15z m1414 -274 c-84 -614 -104
-759 -109 -763 -3 -3 -5 0 -5 6 0 6 -27 152 -60 324 -33 172 -60 320 -60 328
0 9 39 71 87 139 l87 123 32 -63 c21 -43 31 -74 28 -94z m375 26 c44 -63 81
-119 81 -125 1 -39 -126 -664 -132 -649 -6 16 -37 236 -89 636 l-19 149 32 59
c17 33 34 56 38 52 4 -4 44 -59 89 -122z m-196 -73 c3 -13 32 -215 63 -450
l58 -427 -48 -253 c-63 -330 -56 -305 -69 -282 -28 51 -93 60 -132 18 -21 -23
-24 -23 -29 -7 -15 52 -96 496 -96 529 0 36 107 854 115 882 3 8 26 12 69 12
58 0 64 -2 69 -22z m907 -753 l44 -45 -45 0 c-36 0 -51 5 -69 25 -23 24 -23
25 -5 45 10 11 21 20 24 20 4 0 27 -20 51 -45z m-160 8 c0 -13 -44 -53 -59
-53 -10 0 -6 9 14 30 28 29 45 38 45 23z m47 -49 c-3 -3 -12 -4 -19 -1 -8 3
-5 6 6 6 11 1 17 -2 13 -5z m228 -89 l0 -40 -212 -3 -213 -2 0 38 c0 21 3 42
6 45 4 4 99 5 213 4 l206 -2 0 -40z m-1105 -545 c0 -5 -5 -10 -11 -10 -5 0 -7
5 -4 10 3 6 8 10 11 10 2 0 4 -4 4 -10z m0 -40 c0 -5 -2 -10 -4 -10 -3 0 -8 5
-11 10 -3 6 -1 10 4 10 6 0 11 -4 11 -10z m15 -70 c11 0 31 7 43 16 28 19 28
26 -11 -176 l-33 -165 -32 165 c-39 200 -39 196 -10 176 12 -9 32 -16 43 -16z
m13 -621 c-4 -122 -23 -130 -31 -14 -7 93 6 155 24 123 5 -10 8 -59 7 -109z"/>
<path d="M2436 3064 c-54 -55 -18 -144 59 -144 61 0 99 61 75 119 -22 54 -91
67 -134 25z m44 -74 c0 -5 -2 -10 -4 -10 -3 0 -8 5 -11 10 -3 6 -1 10 4 10 6
0 11 -4 11 -10z"/>
</g>
</svg>
