<?xml version="1.0" standalone="no"?>
<!DOCTYPE svg PUBLIC "-//W3C//DTD SVG 20010904//EN"
 "http://www.w3.org/TR/2001/REC-SVG-20010904/DTD/svg10.dtd">
<svg version="1.0" xmlns="http://www.w3.org/2000/svg"
 width="500.000000pt" height="500.000000pt" viewBox="0 0 500.000000 500.000000"
 preserveAspectRatio="xMidYMid meet">

<g transform="translate(0.000000,500.000000) scale(0.100000,-0.100000)"
fill="#000000" stroke="none">
<path d="M3062 4975 c-28 -20 -49 -94 -62 -215 -5 -52 -10 -98 -10 -102 0 -10
-64 -42 -146 -73 -94 -35 -127 -57 -226 -152 -47 -46 -89 -83 -93 -83 -3 0
-43 29 -88 64 -113 87 -189 124 -289 138 -52 7 -88 18 -99 29 -9 9 -25 53 -34
96 -46 214 -78 273 -145 273 -41 0 -70 -20 -70 -48 0 -30 26 -115 69 -223 46
-118 47 -124 26 -193 -18 -58 -20 -178 -4 -244 17 -70 78 -196 167 -344 158
-263 169 -305 112 -413 -38 -71 -147 -230 -306 -446 -187 -254 -214 -293 -306
-444 -197 -325 -388 -675 -623 -1146 -198 -394 -395 -808 -402 -841 -5 -26 -1
-30 48 -52 30 -12 88 -33 129 -46 95 -28 119 -40 206 -105 128 -96 138 -99
304 -100 160 0 154 2 245 -74 28 -23 77 -55 109 -71 49 -25 71 -30 131 -30 39
0 96 4 126 9 132 23 132 23 214 -26 99 -59 160 -72 376 -80 196 -7 241 1 319
58 l42 31 82 -23 c114 -31 214 -30 286 3 30 14 78 44 107 67 60 47 69 48 115
22 59 -35 116 -44 203 -32 105 15 180 50 245 116 l53 54 96 -6 c128 -8 192 10
350 95 l126 68 -2 37 c-5 75 -203 568 -405 1006 -160 348 -460 949 -615 1231
-210 384 -376 702 -413 789 -28 65 -31 81 -25 128 12 100 74 301 135 439 72
164 73 185 26 321 -51 144 -51 143 -11 282 40 144 46 228 17 254 -23 21 -61
22 -90 2z m72 -58 c10 -40 -9 -173 -39 -273 -17 -55 -41 -72 -77 -53 -21 11
-20 20 13 203 24 130 41 169 72 164 16 -2 25 -13 31 -41z m-1231 -17 c57 -67
130 -335 97 -355 -34 -21 -105 100 -140 239 -23 92 -25 117 -8 134 17 17 23
15 51 -18z m1052 -298 c-9 -8 -90 -75 -356 -294 -26 -21 -49 -38 -53 -38 -3 0
-61 36 -128 81 -139 91 -213 132 -308 165 -60 21 -62 23 -29 23 85 2 196 -47
320 -142 119 -91 121 -91 150 -61 40 43 181 158 234 191 79 50 203 104 170 75z
m102 -47 c23 -16 36 -68 48 -182 7 -72 19 -65 -146 -88 -159 -21 -206 -37
-299 -100 -44 -30 -87 -55 -95 -55 -9 0 -62 20 -118 44 -175 75 -201 80 -367
62 -69 -7 -133 -11 -142 -8 -15 3 -18 15 -18 61 0 82 16 179 34 206 l16 24 79
-25 c162 -50 299 -126 423 -235 36 -33 70 -59 75 -59 5 0 26 23 48 51 49 63
206 204 282 255 49 32 116 61 148 63 6 1 20 -6 32 -14z m56 -307 c15 -12 9
-37 -73 -292 -50 -153 -96 -291 -103 -305 -6 -14 -28 -34 -48 -44 -80 -39
-578 -39 -621 0 -10 9 -57 94 -105 187 -98 196 -157 302 -185 333 -11 12 -17
26 -13 32 11 18 62 41 115 51 105 20 329 -31 427 -96 l52 -35 106 61 c114 66
180 97 235 110 56 13 194 12 213 -2z m-147 -720 c14 -46 -68 -80 -244 -99
-117 -13 -384 -6 -442 11 -58 17 -66 25 -54 57 l10 28 269 1 c237 1 279 4 345
21 81 22 104 18 116 -19z m57 -140 c110 -149 407 -725 652 -1268 53 -118 165
-363 247 -545 346 -760 428 -956 428 -1031 0 -18 -16 -29 -86 -58 -150 -63
-243 -79 -326 -55 -66 18 -84 43 -144 204 -219 586 -424 1164 -650 1830 -101
297 -183 536 -183 532 -1 -14 302 -954 433 -1343 127 -377 265 -757 375 -1033
56 -139 61 -157 50 -183 -35 -84 -212 -162 -371 -163 -126 0 -125 -2 -154 222
-57 422 -148 908 -363 1933 -103 494 -162 807 -164 875 -2 58 -1 60 24 63 14
2 31 -4 39 -13 7 -9 37 -84 66 -168 29 -84 53 -148 53 -143 1 5 -22 78 -49
164 -52 161 -53 174 -9 185 15 4 29 -3 46 -21 l25 -27 -7 27 c-14 56 30 66 68
16z m-756 -24 c-4 -22 -3 -22 17 -9 26 19 95 20 102 1 3 -7 -6 -46 -20 -86
-14 -40 -24 -75 -22 -77 2 -2 16 27 31 64 34 86 40 93 81 93 32 0 34 -2 35
-37 l1 -38 12 35 c11 30 18 35 47 38 l34 3 0 -453 c0 -492 5 -573 71 -1203 84
-812 101 -1002 120 -1343 5 -102 4 -126 -10 -146 -33 -52 -183 -74 -372 -56
-139 13 -267 41 -326 71 l-41 21 7 136 c28 568 109 1125 337 2301 49 255 88
468 87 473 -5 15 -93 -355 -143 -604 -105 -526 -204 -1200 -304 -2086 -11 -94
-22 -176 -26 -181 -11 -19 -121 -33 -210 -28 -122 6 -76 -10 71 -25 71 -7 113
-16 111 -22 -2 -6 -26 -19 -53 -29 -100 -36 -299 -3 -399 66 -44 30 -85 80
-74 91 2 3 46 -11 98 -30 51 -19 98 -33 103 -32 6 2 -7 10 -28 17 -46 15 -143
78 -158 103 -13 21 4 106 80 413 130 523 296 1038 539 1675 62 162 116 304
120 315 29 87 -137 -282 -229 -509 -125 -306 -204 -553 -381 -1201 -156 -570
-185 -664 -210 -681 -17 -11 -38 -12 -110 -4 -141 16 -221 47 -313 120 -40 31
-52 47 -52 68 -1 24 -2 25 -11 9 -8 -14 -18 -17 -42 -12 -50 10 -201 45 -214
50 -8 3 26 82 93 222 292 602 348 717 470 953 214 417 390 724 580 1012 257
391 447 613 492 576 7 -7 12 -22 9 -34z m466 -26 c3 -13 15 -75 27 -138 11
-63 90 -464 175 -890 85 -426 172 -874 194 -995 78 -429 156 -963 146 -996
-15 -46 -234 -119 -361 -119 -96 0 -97 1 -106 181 -15 307 -33 484 -132 1344
-86 740 -97 966 -70 1488 7 133 16 147 85 147 30 0 38 -4 42 -22z m-1946
-2777 c44 -22 106 -55 137 -75 129 -82 171 -98 296 -107 202 -15 227 -28 98
-49 -134 -23 -188 -5 -511 169 -42 23 -105 52 -139 64 -34 13 -64 29 -66 36
-8 25 97 3 185 -38z m3593 -61 c0 -12 -179 -102 -245 -123 -86 -27 -123 -29
-182 -12 -30 9 -53 18 -50 21 3 3 56 6 119 7 l113 2 110 56 c115 58 135 65
135 49z m-520 -119 c0 -23 -94 -112 -148 -140 -55 -28 -146 -51 -202 -51 -55
0 -137 23 -165 45 -19 15 -14 16 61 11 151 -10 227 13 364 108 72 50 90 55 90
27z m-577 -132 c-3 -11 -19 -33 -34 -49 -72 -72 -310 -110 -421 -68 -43 16
-34 26 30 33 224 24 273 35 358 79 60 31 74 32 67 5z m-1083 -90 c96 -26 140
-32 262 -36 135 -5 152 -4 217 17 39 13 74 20 78 17 13 -14 -42 -58 -91 -73
-28 -9 -106 -18 -172 -21 -230 -10 -454 49 -454 120 0 15 5 18 23 13 12 -3 74
-20 137 -37z"/>
<path d="M2966 3327 c3 -10 9 -15 12 -12 3 3 0 11 -7 18 -10 9 -11 8 -5 -6z"/>
<path d="M3450 1058 c0 -29 239 -663 247 -655 6 7 -93 287 -167 472 -66 166
-80 197 -80 183z"/>
<path d="M2230 3300 c-12 -16 -19 -30 -16 -30 2 0 14 14 26 30 12 17 19 30 16
30 -2 0 -14 -13 -26 -30z"/>
<path d="M2471 3224 c-7 -25 -10 -48 -8 -51 3 -2 10 17 16 43 7 25 10 48 8 51
-3 2 -10 -17 -16 -43z"/>
<path d="M2112 3128 c-228 -340 -456 -763 -685 -1263 -164 -360 -491 -1125
-484 -1132 5 -4 6 -1 292 652 401 916 544 1199 838 1663 64 100 114 182 112
182 -3 0 -35 -46 -73 -102z"/>
<path d="M2196 2845 c-9 -26 -7 -32 5 -12 6 10 9 21 6 23 -2 3 -7 -2 -11 -11z"/>
<path d="M922 695 c-17 -37 -14 -45 4 -12 9 16 14 31 11 33 -2 2 -9 -7 -15
-21z"/>
<path d="M1658 263 c7 -3 16 -2 19 1 4 3 -2 6 -13 5 -11 0 -14 -3 -6 -6z"/>
</g>
</svg>
